<svg width="80" height="17" viewBox="0 0 80 17" fill="none" xmlns="http://www.w3.org/2000/svg">
<path d="M63.9219 16.6674V1.25942C63.9219 0.827422 63.9819 0.527422 64.1019 0.359422C64.2219 0.191422 64.4859 0.107422 64.8939 0.107422H79.1859V1.69142H66.6939V7.19942H78.1419V8.78342H66.6939V15.0834H79.1859V16.6674H63.9219Z" fill="white"/>
<path d="M45.902 0.107422V15.0834H56.954V16.6674H43.166V1.29542C43.166 1.03142 43.178 0.815422 43.202 0.647422C43.226 0.479422 43.31 0.347421 43.454 0.251421C43.598 0.155421 43.826 0.107422 44.138 0.107422H45.902Z" fill="white"/>
<path d="M26.6207 16.6674V9.93542L20.5367 1.00742L19.8887 0.107422H23.5607L28.6007 7.99142L33.7127 0.107422H36.2327L35.4407 1.11542L29.3567 9.93542V15.4074C29.3807 15.7194 29.3567 15.9714 29.2847 16.1634C29.2127 16.3314 29.0927 16.4634 28.9247 16.5594C28.7567 16.6314 28.4927 16.6674 28.1327 16.6674H26.6207Z" fill="white"/>
<path d="M13.464 16.848C13.104 16.848 12.768 16.8 12.456 16.704C12.144 16.608 11.832 16.44 11.52 16.2C11.376 16.056 11.124 15.792 10.764 15.408C10.428 15.024 10.032 14.592 9.576 14.112C9.144 13.608 8.7 13.104 8.244 12.6C7.788 12.072 7.38 11.604 7.02 11.196C6.66 10.788 6.396 10.488 6.228 10.296C5.964 10.008 5.736 9.804 5.544 9.684C5.352 9.564 5.052 9.456 4.644 9.36L2.736 9.288V16.668H0V1.116C0 0.876001 0.012 0.684 0.036 0.540001C0.0839999 0.396001 0.168 0.288 0.288 0.216001C0.432 0.144001 0.648 0.108001 0.936 0.108001C1.248 0.108001 1.548 0.108001 1.836 0.108001C2.148 0.108001 2.448 0.108001 2.736 0.108001C2.736 0.444001 2.736 0.936 2.736 1.584C2.736 2.208 2.736 2.88 2.736 3.6C2.736 4.296 2.736 4.968 2.736 5.616C2.736 6.24 2.736 6.72 2.736 7.056L4.644 6.948C4.98 6.924 5.232 6.852 5.4 6.732C5.568 6.612 5.76 6.432 5.976 6.192C6.504 5.616 7.056 5.016 7.632 4.392C8.232 3.768 8.844 3.132 9.468 2.484C10.092 1.836 10.68 1.212 11.232 0.612C11.52 0.396 11.82 0.24 12.132 0.144C12.444 0.0479999 12.804 0 13.212 0C13.548 0 13.824 0.0240004 14.04 0.0720005C14.256 0.120001 14.472 0.18 14.688 0.252C14.64 0.276 14.472 0.444001 14.184 0.756001C13.92 1.044 13.608 1.38 13.248 1.764C12.888 2.124 12.576 2.448 12.312 2.736C11.688 3.312 11.028 3.912 10.332 4.536C9.636 5.16 8.964 5.784 8.316 6.408C7.692 7.008 7.104 7.572 6.552 8.1L6.66 7.524C6.996 7.788 7.464 8.232 8.064 8.856C8.688 9.456 9.396 10.176 10.188 11.016C10.98 11.832 11.808 12.696 12.672 13.608C13.536 14.52 14.376 15.372 15.192 16.164C15.144 16.236 15.036 16.332 14.868 16.452C14.7 16.548 14.508 16.632 14.292 16.704C14.076 16.8 13.8 16.848 13.464 16.848Z" fill="white"/>
</svg>
